<svg width="193" height="48" viewBox="0 0 193 48" fill="none" xmlns="http://www.w3.org/2000/svg">
<path d="M20.623 12.248L6.799 44.76C6.50033 45.5707 6.031 46.2107 5.391 46.68C4.79367 47.1067 4.13233 47.32 3.407 47.32C2.255 47.32 1.40167 47 0.847 46.36C0.292333 45.72 0.015 44.9307 0.015 43.992C0.015 43.608 0.079 43.2027 0.207 42.776L16.143 4.504C16.4843 3.65067 16.9963 2.98933 17.679 2.52C18.4043 2.05066 19.1723 1.85866 19.983 1.944C20.751 1.944 21.455 2.17866 22.095 2.648C22.7777 3.07467 23.2683 3.69333 23.567 4.504L39.311 42.008C39.5243 42.5627 39.631 43.0747 39.631 43.544C39.631 44.696 39.247 45.6133 38.479 46.296C37.7537 46.9787 36.943 47.32 36.047 47.32C35.279 47.32 34.575 47.0853 33.935 46.616C33.3377 46.1467 32.8683 45.5067 32.527 44.696L18.767 12.632L20.623 12.248ZM8.783 36.952L12.303 29.592H29.583L30.799 36.952H8.783ZM62.714 12.12C65.8713 12.12 68.2607 12.7813 69.882 14.104C71.546 15.4267 72.6767 17.1973 73.274 19.416C73.914 21.592 74.234 24.024 74.234 26.712V43.096C74.234 44.2053 73.8713 45.144 73.146 45.912C72.4207 46.6373 71.5033 47 70.394 47C69.2847 47 68.3673 46.6373 67.642 45.912C66.9167 45.144 66.554 44.2053 66.554 43.096V26.712C66.554 25.304 66.362 24.0453 65.978 22.936C65.6367 21.784 64.9967 20.8667 64.058 20.184C63.1193 19.5013 61.7753 19.16 60.026 19.16C58.3193 19.16 56.8687 19.5013 55.674 20.184C54.522 20.8667 53.626 21.784 52.986 22.936C52.3887 24.0453 52.09 25.304 52.09 26.712V43.096C52.09 44.2053 51.7273 45.144 51.002 45.912C50.2767 46.6373 49.3593 47 48.25 47C47.1407 47 46.2233 46.6373 45.498 45.912C44.7727 45.144 44.41 44.2053 44.41 43.096V16.664C44.41 15.5547 44.7727 14.6373 45.498 13.912C46.2233 13.144 47.1407 12.76 48.25 12.76C49.3593 12.76 50.2767 13.144 51.002 13.912C51.7273 14.6373 52.09 15.5547 52.09 16.664V19.416L51.13 19.224C51.514 18.4987 52.0687 17.7307 52.794 16.92C53.5193 16.0667 54.3727 15.2773 55.354 14.552C56.3353 13.8267 57.4447 13.2507 58.682 12.824C59.9193 12.3547 61.2633 12.12 62.714 12.12ZM89.767 43.096C89.767 44.2053 89.4043 45.144 88.679 45.912C87.9537 46.6373 87.0363 47 85.927 47C84.8177 47 83.9003 46.6373 83.175 45.912C82.4497 45.144 82.087 44.2053 82.087 43.096V16.664C82.087 15.5547 82.4497 14.6373 83.175 13.912C83.9003 13.144 84.8177 12.76 85.927 12.76C87.0363 12.76 87.9537 13.144 88.679 13.912C89.4043 14.6373 89.767 15.5547 89.767 16.664V43.096ZM85.863 8.6C84.4123 8.6 83.3883 8.36533 82.791 7.896C82.1937 7.42666 81.895 6.59466 81.895 5.4V4.184C81.895 2.94667 82.215 2.11467 82.855 1.688C83.5377 1.21866 84.5617 0.983997 85.927 0.983997C87.4203 0.983997 88.4657 1.21866 89.063 1.688C89.6603 2.15733 89.959 2.98933 89.959 4.184V5.4C89.959 6.63733 89.639 7.49066 88.999 7.96C88.359 8.38667 87.3137 8.6 85.863 8.6ZM115.644 12.12C119.057 12.12 121.575 12.952 123.196 14.616C124.817 16.2373 125.884 18.3493 126.396 20.952L125.308 20.376L125.82 19.352C126.332 18.3707 127.121 17.3253 128.188 16.216C129.255 15.064 130.535 14.104 132.028 13.336C133.564 12.5253 135.271 12.12 137.148 12.12C140.22 12.12 142.545 12.7813 144.124 14.104C145.745 15.4267 146.855 17.1973 147.452 19.416C148.049 21.592 148.348 24.024 148.348 26.712V43.096C148.348 44.2053 147.985 45.144 147.26 45.912C146.535 46.6373 145.617 47 144.508 47C143.399 47 142.481 46.6373 141.756 45.912C141.031 45.144 140.668 44.2053 140.668 43.096V26.712C140.668 25.304 140.497 24.0453 140.156 22.936C139.815 21.784 139.196 20.8667 138.3 20.184C137.404 19.5013 136.124 19.16 134.46 19.16C132.839 19.16 131.452 19.5013 130.3 20.184C129.148 20.8667 128.273 21.784 127.676 22.936C127.121 24.0453 126.844 25.304 126.844 26.712V43.096C126.844 44.2053 126.481 45.144 125.756 45.912C125.031 46.6373 124.113 47 123.004 47C121.895 47 120.977 46.6373 120.252 45.912C119.527 45.144 119.164 44.2053 119.164 43.096V26.712C119.164 25.304 118.993 24.0453 118.652 22.936C118.311 21.784 117.692 20.8667 116.796 20.184C115.9 19.5013 114.62 19.16 112.956 19.16C111.335 19.16 109.948 19.5013 108.796 20.184C107.644 20.8667 106.769 21.784 106.172 22.936C105.617 24.0453 105.34 25.304 105.34 26.712V43.096C105.34 44.2053 104.977 45.144 104.252 45.912C103.527 46.6373 102.609 47 101.5 47C100.391 47 99.4733 46.6373 98.748 45.912C98.0227 45.144 97.66 44.2053 97.66 43.096V16.664C97.66 15.5547 98.0227 14.6373 98.748 13.912C99.4733 13.144 100.391 12.76 101.5 12.76C102.609 12.76 103.527 13.144 104.252 13.912C104.977 14.6373 105.34 15.5547 105.34 16.664V19.416L104.38 19.224C104.764 18.4987 105.297 17.7307 105.98 16.92C106.663 16.0667 107.495 15.2773 108.476 14.552C109.457 13.8267 110.545 13.2507 111.74 12.824C112.935 12.3547 114.236 12.12 115.644 12.12Z" fill="white"/>
<path d="M189.108 2.136C190.217 2.136 191.113 2.52 191.796 3.288C192.479 4.01333 192.82 4.93067 192.82 6.04V29.208C192.82 32.7493 192.052 35.8853 190.516 38.616C189.023 41.3467 186.953 43.48 184.308 45.016C181.663 46.552 178.591 47.32 175.092 47.32C171.593 47.32 168.5 46.552 165.812 45.016C163.167 43.48 161.076 41.3467 159.54 38.616C158.047 35.8853 157.3 32.7493 157.3 29.208V6.04C157.3 4.93067 157.684 4.01333 158.452 3.288C159.22 2.52 160.201 2.136 161.396 2.136C162.377 2.136 163.252 2.52 164.02 3.288C164.831 4.01333 165.236 4.93067 165.236 6.04V29.208C165.236 31.3413 165.684 33.1973 166.58 34.776C167.519 36.312 168.735 37.5067 170.228 38.36C171.764 39.2133 173.385 39.64 175.092 39.64C176.927 39.64 178.633 39.2133 180.212 38.36C181.791 37.5067 183.071 36.312 184.052 34.776C185.033 33.1973 185.524 31.3413 185.524 29.208V6.04C185.524 4.93067 185.844 4.01333 186.484 3.288C187.124 2.52 187.999 2.136 189.108 2.136Z" fill="#E08910"/>
</svg>
